<svg xmlns="http://www.w3.org/2000/svg" viewBox="0 0 72.14 86.5"><defs><style>.cls-1,.cls-9{fill:#fff;}.cls-1{stroke:#67b8b9;stroke-miterlimit:10;stroke-width:3px;}.cls-2{fill:#f0811e;}.cls-3{fill:#76b72b;}.cls-4{fill:#3252a0;}.cls-5{fill:#ced8d8;}.cls-6,.cls-7{fill:#66b7b8;}.cls-7{font-size:5.04px;font-family:Bauhaus93, "Bauhaus 93";}.cls-8{fill:#67b8b9;}</style></defs><g id="Calque_2" data-name="Calque 2"><g id="Calque_1-2" data-name="Calque 1"><rect class="cls-1" x="1.5" y="1.5" width="54.96" height="69.43" rx="3.83"/><rect class="cls-1" x="8.71" y="8.57" width="54.96" height="69.43" rx="3.83"/><rect class="cls-1" x="15.68" y="15.57" width="54.96" height="69.43" rx="3.83"/><rect class="cls-2" x="24.99" y="42.5" width="11.21" height="36.96"/><rect class="cls-3" x="55" y="52.68" width="11.21" height="26.8"/><rect class="cls-4" x="40.74" y="63.93" width="11.21" height="15.54"/><rect class="cls-5" x="30.59" y="29.79" width="27.5" height="3.21"/><rect class="cls-5" x="34.75" y="34.61" width="27.5" height="3.21"/><rect class="cls-5" x="39.47" y="39.75" width="27.5" height="3.21"/><path class="cls-6" d="M31.39,20.18v4.89h-3V20.18h-2.3v-2h7.6v2Z"/><path class="cls-6" d="M35.75,21.93v2.26a.88.88,0,0,1-.29.69,1,1,0,0,1-.74.27,1,1,0,0,1-.85-.44,1.09,1.09,0,0,1-.38.34,1.13,1.13,0,0,1-.51.1,1,1,0,0,1-.73-.27,1.05,1.05,0,0,1-.25-.77V21.93h1v2a.4.4,0,0,0,0,.2s.05,0,.11,0,.15-.07.15-.23V21.93H34.4v2a.43.43,0,0,0,0,.2s0,0,.11,0,.15-.08.15-.25v-2Z"/><path class="cls-6" d="M37.44,21.93v3.14h-1V21.93Z"/><path class="cls-6" d="M38.08,25.07V23a1.1,1.1,0,0,1,.36-.86,1.42,1.42,0,0,1,1-.32,1.23,1.23,0,0,1,.91.31,1.18,1.18,0,0,1,.32.9v2h-1v-2c0-.19-.08-.29-.23-.29s-.23.1-.23.29v2Z"/><text class="cls-7" transform="translate(25.09 29.28) scale(1.2 1)">Network</text><circle class="cls-8" cx="52.29" cy="22.98" r="5.48"/><path class="cls-9" d="M51.13,23l.1,2.05a.9.9,0,0,0,.28-.06,2,2,0,0,0,.38-.17V25a1.63,1.63,0,0,1-.35.16l-.42.1-.41.1a3.14,3.14,0,0,0-.64.29V25.4a1.55,1.55,0,0,0,.46-.36,1.1,1.1,0,0,0,.11-.62l-.11-2.16a3,3,0,0,0-.05-.49.11.11,0,0,0-.07-.08.38.38,0,0,0-.19,0v-.19a4,4,0,0,0,.82-.4c0,.1,0,.25,0,.44l.06,1.14.3-.05a1.11,1.11,0,0,0,.67-.55,1,1,0,0,0,.09-.84.68.68,0,0,0-.42-.47,1,1,0,0,0-.76,0,2.55,2.55,0,0,0-1,.61,2.09,2.09,0,0,0-.6.93,1.52,1.52,0,0,0,0,.92.76.76,0,0,0,.45.49.77.77,0,0,1,.22.12.19.19,0,0,1,.07.11.2.2,0,0,1,0,.15.22.22,0,0,1-.12.09.45.45,0,0,1-.42-.12,1.27,1.27,0,0,1-.41-.66,1.89,1.89,0,0,1,0-1.13,2.34,2.34,0,0,1,.68-1.07A3,3,0,0,1,51,20.52a2.11,2.11,0,0,1,1.12-.08.83.83,0,0,1,.64.58,1.28,1.28,0,0,1-.13.94,2,2,0,0,1-.89.81c.17.19.29.31.34.38s.24.31.43.58A4.78,4.78,0,0,0,53.74,25a.85.85,0,0,0,.72.13.44.44,0,0,0,.35-.44.78.78,0,0,1,0-.28.25.25,0,0,1,.14-.11.18.18,0,0,1,.16,0,.24.24,0,0,1,.11.13.6.6,0,0,1-.12.49,1,1,0,0,1-.56.4,1.47,1.47,0,0,1-.72,0,2.2,2.2,0,0,1-.79-.36,4.35,4.35,0,0,1-.8-.76c-.13-.16-.34-.46-.63-.89-.17-.27-.28-.42-.32-.48l-.09,0Z"/></g></g></svg>