<svg xmlns="http://www.w3.org/2000/svg" viewBox="0 0 10.96 10.96"><defs><style>.cls-1{fill:transparent;}.cls-2{fill:#fff;}</style></defs><g id="Calque_2" data-name="Calque 2"><g id="Calque_1-2" data-name="Calque 1"><circle class="cls-1" cx="5.48" cy="5.48" r="5.48"/><path class="cls-2" d="M4.32,5.46l.1,2.05.28-.06a1.91,1.91,0,0,0,.37-.17l0,.18a1.81,1.81,0,0,1-.36.17l-.42.1a2.32,2.32,0,0,0-.4.1,2.84,2.84,0,0,0-.64.28V7.89a1.34,1.34,0,0,0,.45-.35,1.1,1.1,0,0,0,.12-.63L3.71,4.75a3.74,3.74,0,0,0,0-.48.11.11,0,0,0-.07-.08.34.34,0,0,0-.19,0V4a4.1,4.1,0,0,0,.83-.4c0,.1,0,.25,0,.44l0,1.14a1.13,1.13,0,0,0,.31-.06,1.1,1.1,0,0,0,.67-.54,1.06,1.06,0,0,0,.09-.85.73.73,0,0,0-.42-.47,1.13,1.13,0,0,0-.77,0,2.47,2.47,0,0,0-1,.61,2,2,0,0,0-.6.92,1.56,1.56,0,0,0,0,.93A.77.77,0,0,0,3,6.24a1,1,0,0,1,.22.12.23.23,0,0,1,.07.1.19.19,0,0,1,0,.15.18.18,0,0,1-.12.1.43.43,0,0,1-.41-.12,1.38,1.38,0,0,1-.42-.67,2,2,0,0,1,0-1.12A2.4,2.4,0,0,1,3,3.73,2.92,2.92,0,0,1,4.21,3a2.1,2.1,0,0,1,1.12-.08A.78.78,0,0,1,6,3.52a1.23,1.23,0,0,1-.12.94,1.93,1.93,0,0,1-.9.8,5.17,5.17,0,0,1,.35.39c.09.11.23.3.43.58A4.94,4.94,0,0,0,6.93,7.52a.89.89,0,0,0,.72.13A.44.44,0,0,0,8,7.2a.75.75,0,0,1,0-.27.19.19,0,0,1,.14-.11.18.18,0,0,1,.16,0,.19.19,0,0,1,.1.13.57.57,0,0,1-.11.5,1,1,0,0,1-.57.39,1.42,1.42,0,0,1-.71,0,2.2,2.2,0,0,1-.79-.36,3.84,3.84,0,0,1-.8-.77c-.13-.15-.34-.45-.63-.88L4.5,5.4l-.09,0Z"/></g></g></svg>